<svg width="408" height="330" viewBox="0 0 408 330" fill="none" xmlns="http://www.w3.org/2000/svg" role="img" aria-label="GITHUB ANALYTICS">
  <defs>
    <linearGradient id="acc" x1="0" y1="0" x2="1" y2="0.25">
      <stop offset="0%" stop-color="#0D9488"/><stop offset="100%" stop-color="#7C3AED"/>
    </linearGradient>
  </defs>
  <rect x="1" y="1" width="406" height="328" rx="14" fill="#FFFFFF" stroke="#D0D7DE" stroke-width="1.5"/>
  <text x="24" y="36" font-family="-apple-system, 'Segoe UI', Helvetica, Arial, sans-serif" font-size="13" font-weight="600" letter-spacing="2" fill="#57606A">GITHUB ANALYTICS</text>
  <rect x="24" y="44" width="34" height="2" fill="url(#acc)"/>
  <text x="24" y="114" font-family="-apple-system, 'Segoe UI', Helvetica, Arial, sans-serif" font-size="44" font-weight="800" fill="url(#acc)">42</text>
  <text x="24" y="138" font-family="-apple-system, 'Segoe UI', Helvetica, Arial, sans-serif" font-size="12.5" letter-spacing="2" fill="#57606A">CONTRIBUTIONS · LAST YEAR</text>
  <g transform="translate(24,168)">
    <rect x="0" y="-10" width="3" height="14" rx="1.5" fill="#0D9488"/>
    <text x="14" y="2" font-family="-apple-system, 'Segoe UI', Helvetica, Arial, sans-serif" font-size="12.5" letter-spacing="1" fill="#57606A">COMMITS · LAST YEAR</text>
    <text x="360" y="2" text-anchor="end" font-family="-apple-system, 'Segoe UI', Helvetica, Arial, sans-serif" font-size="16" font-weight="700" fill="#1F2328">28</text>
    <rect x="0" y="16" width="360" height="1" fill="#D0D7DE" opacity="0.6"/>
  </g>
  <g transform="translate(24,208)">
    <rect x="0" y="-10" width="3" height="14" rx="1.5" fill="#7C3AED"/>
    <text x="14" y="2" font-family="-apple-system, 'Segoe UI', Helvetica, Arial, sans-serif" font-size="12.5" letter-spacing="1" fill="#57606A">PULL REQUESTS</text>
    <text x="360" y="2" text-anchor="end" font-family="-apple-system, 'Segoe UI', Helvetica, Arial, sans-serif" font-size="16" font-weight="700" fill="#1F2328">2</text>
    <rect x="0" y="16" width="360" height="1" fill="#D0D7DE" opacity="0.6"/>
  </g>
  <g transform="translate(24,248)">
    <rect x="0" y="-10" width="3" height="14" rx="1.5" fill="#0D9488"/>
    <text x="14" y="2" font-family="-apple-system, 'Segoe UI', Helvetica, Arial, sans-serif" font-size="12.5" letter-spacing="1" fill="#57606A">PUBLIC REPOSITORIES</text>
    <text x="360" y="2" text-anchor="end" font-family="-apple-system, 'Segoe UI', Helvetica, Arial, sans-serif" font-size="16" font-weight="700" fill="#1F2328">11</text>
    <rect x="0" y="16" width="360" height="1" fill="#D0D7DE" opacity="0.6"/>
  </g>
  <g transform="translate(24,288)">
    <rect x="0" y="-10" width="3" height="14" rx="1.5" fill="#7C3AED"/>
    <text x="14" y="2" font-family="-apple-system, 'Segoe UI', Helvetica, Arial, sans-serif" font-size="12.5" letter-spacing="1" fill="#57606A">FOLLOWERS</text>
    <text x="360" y="2" text-anchor="end" font-family="-apple-system, 'Segoe UI', Helvetica, Arial, sans-serif" font-size="16" font-weight="700" fill="#1F2328">1</text>
    <rect x="0" y="16" width="360" height="1" fill="#D0D7DE" opacity="0.6"/>
  </g>
</svg>
